<svg xmlns="http://www.w3.org/2000/svg" width="101" height="18" fill="none"><path fill="#111" d="M1.2 16.5A6.8 6.8 0 0 1 0 12V6c0-1.6.3-3.1 1.2-4.4C2 .5 3.4 0 5.2 0c2 0 3.3.4 4 1.3.8 1 1.2 2.4 1.1 3.8v1.4H6.8V5l-.1-1.2c0-.3-.2-.6-.4-.8a1.3 1.3 0 0 0-1-.3l-.8.1-.5.5L3.7 5v8c0 .6 0 1.3.3 1.8.1.2.3.4.6.5l.7.2c.2 0 .5 0 .7-.2.2 0 .4-.3.5-.5.2-.6.3-1.2.2-1.8v-1.7h3.6v1.5a6 6 0 0 1-1 3.8c-.8 1-2.1 1.4-4 1.4-1.8 0-3.3-.5-4-1.5ZM15.2.2h4l3.5 17.6h-3.4l-.6-3.9h-2.9l-.7 3.9h-3.4L15.2.2Zm3 11.5-1-7-1 7h2ZM25.3 2.9h-2.8V.2h9.2V3H29v14.9h-3.7v-15Z"/><path fill="#444" d="M39 .2h6.9v1.9h-4.5v5.8H45v1.7h-3.6V16H46v1.8h-7V.2ZM48 .2h1.7L54.8 12V.2H57v17.6h-1.6l-5.1-12v12H48V.2ZM59.7.2h7v1.9h-4.5v5.8h3.6v1.7h-3.6V16h4.5v1.8h-7V.2ZM68.7.2h3.6c1.5 0 2.9.3 4 1.1.9.8 1.3 2 1.3 3.6 0 2.2-.7 3.6-2.2 4l2.6 8.9h-2.5l-2.3-8.3h-2v8.3h-2.5V.2Zm3.4 7.6c.9 0 1.7-.2 2.4-.7a3 3 0 0 0 .7-2.2c0-.6-.1-1.2-.3-1.7a1.6 1.6 0 0 0-.8-1L72.3 2h-1.1v5.8h1ZM81 16.5c-.8-1.4-1.2-3-1.1-4.5V6.2c0-1.2.1-2.3.4-3.4.3-.8.8-1.5 1.5-2 .9-.5 1.9-.8 2.9-.7a4.6 4.6 0 0 1 3.6 1.2 5.7 5.7 0 0 1 1 3.9v.6H87v-.5l-.1-2c-.1-.3-.3-.7-.7-1-.4-.2-1-.3-1.5-.3s-1 .1-1.5.5c-.4.3-.6.7-.7 1.2a12 12 0 0 0-.1 2v6.6c0 1 0 2 .5 2.9a2.4 2.4 0 0 0 2 .9 2.5 2.5 0 0 0 1.8-1c.4-1 .6-2 .6-3v-1.3H85V9.1h4.5v8.7H88l-.3-2a3 3 0 0 1-1.2 1.6c-.6.4-1.3.6-2 .6a4 4 0 0 1-3.5-1.5ZM94.7 11.6 90.8.2h2.4l2.7 8.5L98.6.2h2.4l-3.9 11.4v6.2h-2.4v-6.2Z"/></svg>