<svg xmlns="http://www.w3.org/2000/svg" width="118" height="21" fill="none"><path fill="#111" d="M1.4 19.2a8 8 0 0 1-1.4-5V6.8a8 8 0 0 1 1.4-5C2.4.5 3.9 0 6.2 0c2.2 0 3.7.5 4.5 1.5 1 1.3 1.5 2.8 1.4 4.4v1.7H7.9V5.8l-.1-1.5c0-.4-.2-.7-.5-1A1.6 1.6 0 0 0 6.2 3l-1 .1-.6.6c-.2.7-.3 1.5-.3 2.2v9.3c0 .7.1 1.4.4 2.1.1.3.4.5.6.6.3.1.6.2.9.1L7 18l.6-.6.3-2.1v-2H12V15a7 7 0 0 1-1.2 4.5c-.9 1-2.4 1.6-4.6 1.6-2.2 0-3.8-.6-4.8-1.8ZM17.7.3h4.8l4 20.5h-4l-.7-4.6h-3.3l-.8 4.5h-4l4-20.4Zm3.7 13.4L20 5.4l-1.3 8.3h2.6ZM29.5 3.4h-3.2V.3H37v3h-3.2v17.4h-4.3V3.4Z"/><path fill="#444" d="M45.5.3h8.1v2.1h-5.2v6.8h4.2v2h-4.2v7.5h5.3v2h-8.2V.3ZM56 .3h2l6 13.6V.3h2.5v20.5h-1.9l-6-14v14h-2.5V.2ZM69.7.3H78v2.1h-5.3v6.8H77v2h-4.2v7.5h5.2v2h-8.2V.3ZM80.3.3h4.2c1.7-.1 3.3.3 4.7 1.3 1 .8 1.5 2.2 1.5 4.1 0 2.6-.9 4.2-2.6 4.8l3 10.2h-2.9l-2.7-9.6h-2.3v9.6h-3V.3Zm4 8.8c1 0 2-.2 2.7-.8a3.5 3.5 0 0 0 .8-2.6c0-.7 0-1.3-.3-2a1.8 1.8 0 0 0-1-1c-.6-.3-1.3-.4-2-.4h-1.3v6.8h1ZM94.6 19.2a8.8 8.8 0 0 1-1.2-5.2V7.2c0-1.3 0-2.7.5-4 .2-.9.9-1.7 1.7-2.3A6 6 0 0 1 99 .1a5.4 5.4 0 0 1 4.2 1.5c1 1.3 1.4 2.9 1.2 4.5v.7h-2.7v-.6c0-.8 0-1.5-.2-2.3 0-.4-.4-.9-.8-1.2a3 3 0 0 0-1.7-.4c-.6 0-1.3.2-1.8.6-.4.4-.7.9-.8 1.4a14 14 0 0 0-.1 2.4v7.6c-.1 1.2 0 2.4.5 3.4a2.8 2.8 0 0 0 2.3 1 2.9 2.9 0 0 0 2.2-1c.5-1.2.7-2.4.6-3.6v-1.5h-2.6v-2h5.3v10.1h-1.8l-.3-2.3c-.3.8-.7 1.4-1.4 2-.7.4-1.5.6-2.4.6a4.8 4.8 0 0 1-4-1.8ZM110.7 13.5 106 .3h2.8L112 10l3.1-9.8h2.8l-4.5 13.2v7.2h-2.8v-7.2Z"/></svg>