<svg xmlns="http://www.w3.org/2000/svg" fill="none" viewBox="0 0 80 80"><path fill="#68B738" d="M0 0h80v80h-80z"/><path fill="#fff" d="M32.5 24c-1 0-1 1.6 0 1.6h6.7v1.6c-6.8.4-12.2 6.3-12.2 13.4 0 4 1.7 7.7 4.5 10.1.5.4.5 1.2.1 1.7l-1.5 1.5c-.8.7.3 1.8 1 1l2-2c.3-.4.9-.4 1.3-.2a12.6 12.6 0 0 0 11 0c.5-.2 1-.1 1.3.2l2 2c.7.7 1.6-.3 1-1l-1.4-1.5c-.5-.4-.4-1.2 0-1.6a13.5 13.5 0 0 0 4.7-10.2c0-7.1-5.4-13-12.2-13.4v-1.6h6.6c1 0 1-1.6 0-1.6h-14.9Zm-4 16.6c0-6.6 5.1-12 11.5-12s11.5 5.4 11.5 12-5.1 11.9-11.5 11.9-11.6-5.3-11.6-12Zm10.7-8.2c0-1 1.6-1 1.6 0v8.7a.8.8 0 0 1-.8.9.8.8 0 0 1-.8-.8v-8.8Zm-5 2.7a1.2 1.2 0 0 0 0-2.4 1.2 1.2 0 0 0 0 2.4Zm11.5 0a1.2 1.2 0 0 0 0-2.4 1.2 1.2 0 0 0 0 2.4Zm-10.3 12.6c0 1.6-2.3 1.6-2.3 0 0-1.5 2.3-1.5 2.3 0Zm4.6 3.5a1.2 1.2 0 1 0 .2-2.3 1.2 1.2 0 0 0-.2 2.3Zm-8.1-10.5a1.2 1.2 0 1 1-2.3.3 1.2 1.2 0 0 1 2.3-.3Zm17.3 1.3a1.2 1.2 0 1 0 .2-2.3 1.2 1.2 0 0 0-.2 2.3Zm-2.2 5.7c0 1.6-2.3 1.6-2.3 0 0-1.5 2.3-1.5 2.3 0Z"/></svg>