<svg xmlns="http://www.w3.org/2000/svg" fill="none" viewBox="0 0 80 80"><path fill="#68B738" d="M0 0h80v80h-80z"/><path fill="#fff" fill-rule="evenodd" d="M46.6 25c.4 0 .8 0 1.1.3 1 .9 2.1 2.9 3 6 1 3 1.8 7.2 1.8 12.7 0 .6-.4 1-1 1h-3.5v9a1 1 0 1 1-2 0v-28c0-.4.2-.8.6-1Zm1.4 18h2.5a39.6 39.6 0 0 0-2.5-13.5v13.5Zm-14-18c.6 0 1 .4 1 1v28a1 1 0 1 1-2 0v-28c0-.6.4-1 1-1Z" clip-rule="evenodd"/><path fill="#fff" fill-rule="evenodd" d="M29.5 25c.6 0 1 .4 1 1v5.5c0 .6.2 1.3.7 2 .5.5 1.3 1 2.8 1a1 1 0 1 1 0 2c-2 0-3.4-.7-4.3-1.8a5 5 0 0 1-1.2-3.2v-5.5c0-.6.4-1 1-1Z" clip-rule="evenodd"/><path fill="#fff" fill-rule="evenodd" d="M38.5 25a1 1 0 0 0-1 1v5.5a3 3 0 0 1-.7 2c-.5.5-1.3 1-2.8 1a1 1 0 0 0 0 2c2 0 3.4-.7 4.3-1.8a5 5 0 0 0 1.2-3.2v-5.5c0-.6-.4-1-1-1Z" clip-rule="evenodd"/></svg>