<svg xmlns="http://www.w3.org/2000/svg" fill="none" viewBox="0 0 80 80"><path fill="#68B738" d="M0 0h80v80h-80z"/><g clip-path="url(#a)"><path fill="#fff" d="M51.8 27.8a1 1 0 0 0-1-.8c-4.8 0-16.8 1-21.6 8.4-2.6 3.9-2.8 8.9-.7 15-.7 2-1 3.4-1 3.4 0 .5.3 1 .8 1.2h.2a1 1 0 0 0 .9-.8s2.3-10.4 10.6-16.4c.5-.3.6-.9.3-1.4a.9.9 0 0 0-1.3-.2 30 30 0 0 0-9.5 11.6c-1.2-4.6-.9-8.4 1-11.3 3.8-5.7 12.6-7.1 18-7.4a20 20 0 0 0-2.3 10.9c0 3.1-.9 5.5-2.5 7.1-2.6 2.6-6.9 2.9-10 2.6a1 1 0 0 0-1 1c0 .5.4 1 .9 1l2 .1c3.1 0 6.8-.7 9.4-3.2 2-2 3-4.9 3-8.6 0-9.1 3.3-11 3.3-11.1.4-.2.6-.7.5-1.1Z"/></g><defs><clipPath id="a"><path fill="#fff" d="M24 25h30v32h-30z"/></clipPath></defs></svg>