<svg xmlns="http://www.w3.org/2000/svg" fill="none" viewBox="0 0 80 80"><path fill="#68B738" d="M0 0h80v80h-80z"/><path fill="#fff" d="M37.9 26c-1.7 0-3 1.4-3 3.1 0 1.7 1.3 3.1 3 3.1 1.6 0 2.9-1.4 2.9-3.1 0-1.7-1.3-3.1-3-3.1Zm0 1.2c1 0 1.7.8 1.7 1.9 0 1-.8 2-1.7 2-1 0-1.8-1-1.8-2s.8-2 1.8-2Zm-10.9 23.7c0 1.2.4 2.2 1.4 3 1 .9 2.1.8 2.1.8h19c.8 0 1.8-.4 2.7-1.5.8-1 .7-2.3.7-2.3v-17.4c0-.4 0-.6-.7-.6-.6 0-.7.3-.7.6v17.3c0 .3 0 1.1-.7 1.8-.8.6-1.5.5-1.5.5h-19c-.3 0-.9-.2-1.4-1-.5-.6-.4-1.6-.4-1.6v-17.3c0-.4-.3-.6-.8-.6-.4 0-.7.2-.7.6v17.7Zm16.3-16.4c-1 .2-2.2.4-4.3 2.3-2 2-3.6 2-5.1 1.9-1.6-.1-3.2-1.6-3.5-2-.3-.3-.9 0-1 .2-.2.2-.2.6 0 1a7 7 0 0 0 4.8 2.3c2.2.2 4.4-.9 5.9-2.3 1.4-1.5 2.1-1.8 3.2-2 2.6-.4 4.2.7 5 1.3 1 1.1 1.3.8 1.6.5.6-.7-.2-1.3-1-1.9a7.2 7.2 0 0 0-5.6-1.3Zm-9 7.2c-1.2 0-2.1 1-2.1 2.3 0 1.2.9 2.2 2 2.2 1.2 0 2.1-1 2.1-2.2 0-1.3-.9-2.3-2-2.3Zm11.7.8c-1.5 0-2.8 1.3-2.8 3 0 1.6 1.3 3 2.8 3 1.5 0 2.8-1.4 2.8-3 0-1.7-1.3-3-2.8-3Zm0 1.4c.8 0 1.5.7 1.5 1.6 0 .8-.7 1.5-1.5 1.5s-1.4-.7-1.4-1.5c0-.9.6-1.6 1.4-1.6Z"/></svg>